<?xml version="1.0" encoding="utf-8"?>
<!-- Generator: Adobe Illustrator 24.1.2, SVG Export Plug-In . SVG Version: 6.00 Build 0)  -->
<svg version="1.1" id="Capa_1" xmlns="http://www.w3.org/2000/svg" xmlns:xlink="http://www.w3.org/1999/xlink" x="0px" y="0px"
	 viewBox="0 0 5029.39 5268.89" style="enable-background:new 0 0 5029.39 5268.89;" xml:space="preserve">
<style type="text/css">
	.st0{fill:#1E3E6C;}
	.st1{fill:#704F9B;}
</style>
<g>
	<path class="st0" d="M4081.95,403.98c101.05,217.37,272.42,331.77,475.42,427.13c-67.46,40.55-130.76,72.18-186.5,113.89
		c-57.29,42.87-111.46,91.78-159.17,145.07c-47.5,53.05-85.29,114.82-132.88,180.41c-107.72-198.12-259.35-339.94-476.92-433.91
		C3814.94,742.98,3975.96,609.98,4081.95,403.98z"/>
	<g>
		<path class="st1" d="M760.58,4556.17v191.06h-92.85V4589.1c0-34.41-17.2-53.69-46.3-53.69c-25.5,0-47.16,17.5-47.16,55.18v156.66
			H481.4V4589.1c0-34.41-17.2-53.69-45.97-53.69c-25.83,0-47.18,17.5-47.18,55.18v156.66h-92.85v-291.06h89v36.49
			c18.39-30.56,47.76-44.49,86.62-44.49c38.28,0,70.92,17.5,88.73,48.64c19.57-33.52,52.21-48.64,92.25-48.64
			C718.46,4448.18,760.58,4489.13,760.58,4556.17z"/>
		<path class="st1" d="M1136.31,4601.57c0,88.1-67.05,153.39-158.14,153.39c-90.79,0-157.84-65.29-157.84-153.39
			c0-88.12,67.05-153.39,157.84-153.39C1069.26,4448.18,1136.31,4513.45,1136.31,4601.57z M915.27,4601.57
			c0,39.16,26.71,66.75,62.9,66.75c36.49,0,63.2-27.59,63.2-66.75s-26.71-66.77-63.2-66.77
			C941.98,4534.8,915.27,4562.41,915.27,4601.57z"/>
		<path class="st1" d="M1399.27,4452.63l-8.6,92.55c-12.47-4.15-29.98-7.7-46.58-7.7c-32.94,0-53.12,16.3-53.12,52.51v157.24h-92.85
			v-291.06h89v33.52c16.9-28.17,43.91-41.52,79.5-41.52C1380.28,4448.18,1392.15,4450.55,1399.27,4452.63z"/>
		<path class="st1" d="M1725.4,4601.57c0,9.48-0.58,22.54-1.76,28.77h-197.3c7.7,31.74,30.26,46.58,62.3,46.58
			c21.65,0,45.09-8.9,63.48-25.5l59.93,55.76c-30.26,30.28-74.47,47.78-128.16,47.78c-91.37,0-153.39-60.84-153.39-151.6
			c0-91.69,60.84-155.17,149.24-155.17C1666.07,4448.18,1725.12,4510.48,1725.4,4601.57z M1526.62,4571.59h105.93
			c-7.42-29.07-25.53-44.49-52.51-44.49C1551.26,4527.1,1533.76,4542.82,1526.62,4571.59z"/>
		<path class="st1" d="M1880.06,4747.24h-92.85v-427.22h92.85V4747.24z"/>
		<path class="st1" d="M2058.4,4366.6c0,31.14-24.32,55.18-55.48,55.18c-31.44,0-55.48-24.04-55.48-55.18
			c0-31.46,24.04-55.78,55.48-55.78C2034.08,4310.81,2058.4,4335.13,2058.4,4366.6z M2049.79,4747.24h-92.85v-291.06h92.85V4747.24z
			"/>
		<path class="st1" d="M2420.1,4747.24h-89.91v-31.44c-17.5,22.84-44.19,39.16-83.65,39.16c-77.74,0-135.3-67.65-135.3-153.69
			c0-85.46,57.57-153.09,135.58-153.09c39.18,0,65.87,16.6,83.37,39.46v-31.46h89.91V4747.24z M2206.78,4601.57
			c0,37.98,24.92,66.75,62,66.75c36.49,0,62.32-28.19,62.32-66.75c0-38.58-25.83-66.77-62.32-66.77
			C2231.7,4534.8,2206.78,4563.59,2206.78,4601.57z"/>
		<path class="st0" d="M2802.01,4607.78c0,83.09-61.11,143.91-139.73,143.91c-50.45,0-87.82-22.84-110.08-57.57v53.12h-33.83
			v-427.22h33.83v201.15c22.26-34.43,59.63-57.57,110.08-57.57C2740.9,4463.6,2802.01,4524.71,2802.01,4607.78z M2549.81,4607.78
			c0,64.1,45.7,112.17,108.6,112.17c64.38,0,108.9-49.27,108.9-112.17c0-63.18-45.12-112.44-108.9-112.44
			C2595.51,4495.34,2549.81,4543.7,2549.81,4607.78z"/>
		<path class="st0" d="M3071.2,4473.99l-8.6,32.94c-13.66-7.42-32.64-11.29-49.57-11.29c-46.58,0-79.8,37.67-79.8,94.06v157.54
			h-33.52v-279.19h33.22v47.48c18.11-32.64,49.27-52.23,86.04-52.23C3038.86,4463.3,3056.07,4466.57,3071.2,4473.99z"/>
		<path class="st0" d="M3194.38,4367.78c0,13.63-10.69,24.02-24.34,24.02c-13.63,0-24.02-10.39-24.02-24.02
			c0-13.66,10.39-24.62,24.02-24.62C3183.7,4343.16,3194.38,4354.12,3194.38,4367.78z M3186.96,4747.24h-33.83v-279.19h33.83
			V4747.24z"/>
		<path class="st0" d="M3340.37,4747.24h-33.83v-427.22h33.83V4747.24z"/>
		<path class="st0" d="M3493.79,4747.24h-33.83v-427.22h33.83V4747.24z"/>
		<path class="st0" d="M3874.75,4747.24h-33.52v-53.7c-22.56,35.01-59.93,58.15-110.66,58.15c-78.34,0-139.45-60.81-139.45-143.91
			c0-83.07,61.11-144.18,139.45-144.18c50.73,0,88.1,23.44,110.66,58.15v-53.69h33.52V4747.24z M3625.54,4607.78
			c0,62.9,45.4,112.17,108.87,112.17c63.2,0,108.6-48.06,108.6-112.17c0-64.08-45.4-112.44-108.6-112.44
			C3670.33,4495.34,3625.54,4544.6,3625.54,4607.78z"/>
	</g>
	<g>
		<path class="st1" d="M3955.39,2095.2v1475.34h-717.05V2349.49c0-265.74-132.87-414.65-357.39-414.65
			c-197.02,0-364.25,135.16-364.25,426.11v1209.6h-717.05V2349.49c0-265.74-132.87-414.65-355.09-414.65
			c-199.32,0-364.25,135.16-364.25,426.11v1209.6H363.25V1323.16h687.28v281.78c142.05-235.97,368.84-343.64,668.94-343.64
			c295.53,0,547.54,135.16,684.98,375.7c151.21-258.88,403.2-375.7,712.48-375.7C3630.09,1261.31,3955.39,1577.45,3955.39,2095.2z"
			/>
	</g>
</g>
</svg>
